<svg width="20" height="26" viewBox="0 0 20 26" fill="none" xmlns="http://www.w3.org/2000/svg">
<g clip-path="url(#clip0_4317_50410)">
<path d="M4.57031 11.1914C4.88672 11.1914 5.08594 11.0273 5.19141 10.6289L5.58984 9.46875H7.79297L8.21484 10.6289C8.32031 11.0156 8.51953 11.1914 8.82422 11.1914C9.22266 11.1914 9.44531 10.9688 9.44531 10.5938C9.44531 10.5117 9.42188 10.3594 9.375 10.207L7.65234 5.4375C7.47656 4.94531 7.18359 4.71094 6.67969 4.71094C6.21094 4.71094 5.92969 4.94531 5.75391 5.4375L4.03125 10.207C3.97266 10.3477 3.94922 10.5117 3.94922 10.5938C3.94922 10.9688 4.18359 11.1914 4.57031 11.1914ZM5.85938 8.49609L6.65625 6.03516H6.72656L7.53516 8.49609H5.85938ZM11.4844 6.73828H15.0586C15.4688 6.73828 15.7852 6.42188 15.7852 6.01172C15.7852 5.61328 15.4688 5.29688 15.0586 5.29688H11.4844C11.0508 5.29688 10.7461 5.61328 10.7461 6.01172C10.7461 6.42188 11.0508 6.73828 11.4844 6.73828ZM11.4844 10.8281H15.0586C15.4688 10.8281 15.7852 10.5117 15.7852 10.1016C15.7852 9.70312 15.4688 9.38672 15.0586 9.38672H11.4844C11.0508 9.38672 10.7461 9.70312 10.7461 10.1016C10.7461 10.5117 11.0508 10.8281 11.4844 10.8281ZM3.89062 20.5195H4.71094L6.25781 18.9609C6.48047 18.75 6.71484 18.668 6.94922 18.668C7.18359 18.668 7.44141 18.7617 7.66406 18.9609L8.625 19.8398L11.0273 17.707C11.2969 17.4727 11.5781 17.3672 11.8477 17.3672C12.1406 17.3672 12.4453 17.4609 12.6562 17.707L15 20.4023H15.8203V14.8008C15.8203 13.7695 15.2812 13.2422 14.25 13.2422H5.47266C4.47656 13.2422 3.89062 13.7695 3.89062 14.8008V20.5195ZM7.75781 17.707C7.05469 17.707 6.49219 17.1211 6.49219 16.4414C6.49219 15.7383 7.05469 15.1523 7.75781 15.1758C8.44922 15.1992 9.02344 15.7383 9.02344 16.4414C9.02344 17.1211 8.44922 17.707 7.75781 17.707ZM0 21.457C0 23.9062 1.20703 25.125 3.63281 25.125H16.0781C18.5039 25.125 19.7109 23.9062 19.7109 21.457V3.67969C19.7109 1.24219 18.5039 0 16.0781 0H3.63281C1.20703 0 0 1.24219 0 3.67969V21.457ZM1.88672 21.4219V3.71484C1.88672 2.54297 2.50781 1.88672 3.72656 1.88672H15.9844C17.2031 1.88672 17.8242 2.54297 17.8242 3.71484V21.4219C17.8242 22.5938 17.2031 23.2383 15.9844 23.2383H3.72656C2.50781 23.2383 1.88672 22.5938 1.88672 21.4219Z" fill="#818CF8"/>
</g>
<defs>
<clipPath id="clip0_4317_50410">
<rect width="19.7109" height="25.1367" fill="white"/>
</clipPath>
</defs>
</svg>
