<svg width="7" height="7" viewBox="0 0 7 7" fill="none" xmlns="http://www.w3.org/2000/svg">
<g clip-path="url(#clip0_4314_50357)">
<path d="M3.88755 0.555664L5.55357 2.22169V5.55374C5.55357 5.70102 5.49506 5.84227 5.39091 5.94642C5.28677 6.05057 5.14551 6.10908 4.99823 6.10908H1.66618C1.5189 6.10908 1.37764 6.05057 1.2735 5.94642C1.16935 5.84227 1.11084 5.70102 1.11084 5.55374V1.11101C1.11084 0.96372 1.16935 0.822466 1.2735 0.71832C1.37764 0.614173 1.5189 0.555664 1.66618 0.555664H3.88755ZM4.99823 5.55374V2.49936H3.60988V1.11101H1.66618V5.55374H4.99823ZM3.33221 5.27607L2.22152 4.16538H2.9157V3.33237H3.74871V4.16538H4.44289L3.33221 5.27607Z" fill="white"/>
</g>
<defs>
<clipPath id="clip0_4314_50357">
<rect width="6.6641" height="6.6641" fill="white"/>
</clipPath>
</defs>
</svg>
